<svg width="1061" height="416" viewBox="0 0 1061 416" fill="none" xmlns="http://www.w3.org/2000/svg">
<rect x="0.5" y="0.5" width="1060" height="415" rx="28.5" stroke="black"/>
<path d="M191.088 197.834C191.088 198.127 190.99 198.664 190.795 199.445C189.005 205.988 185.196 210.92 179.369 214.24C173.575 217.528 167.471 219.172 161.059 219.172C150.772 219.172 142.748 216.014 136.986 209.699C131.257 203.352 128.393 195.148 128.393 185.09C128.393 174.868 131.339 166.568 137.23 160.188C143.155 153.775 151.326 150.568 161.742 150.568C168.122 150.568 174.242 152.277 180.102 155.695C185.993 159.081 189.542 164.077 190.746 170.686C190.876 171.206 190.941 171.613 190.941 171.906C190.941 173.729 189.346 174.641 186.156 174.641C182.999 174.641 181.306 173.794 181.078 172.102C179.646 161.392 173.201 156.037 161.742 156.037C153.799 156.037 147.891 159.097 144.018 165.217C140.176 171.304 138.256 177.896 138.256 184.992C138.256 191.958 140.095 198.501 143.773 204.621C147.452 210.708 153.246 213.752 161.156 213.752C172.647 213.752 179.32 208.365 181.176 197.59C181.436 195.962 183.096 195.148 186.156 195.148C189.444 195.148 191.088 196.044 191.088 197.834ZM251.293 219.172C248.005 219.172 246.361 218.26 246.361 216.438V187.58H208.275V216.438C208.275 218.26 206.632 219.172 203.344 219.172C200.023 219.172 198.363 218.26 198.363 216.438V153.303C198.363 151.48 200.023 150.568 203.344 150.568C206.632 150.568 208.275 151.48 208.275 153.303V182.16H246.361V153.303C246.361 151.48 248.005 150.568 251.293 150.568C254.613 150.568 256.273 151.48 256.273 153.303V216.438C256.273 218.26 254.613 219.172 251.293 219.172ZM321.312 219.172C320.043 219.172 318.936 218.928 317.992 218.439C314.281 216.584 311.482 214.094 309.594 210.969C307.706 207.844 306.013 204.637 304.516 201.35C303.409 198.876 301.944 196.044 300.121 192.854C298.331 189.631 295.792 188.02 292.504 188.02H275.951V216.438C275.951 218.26 274.291 219.172 270.971 219.172C267.683 219.172 266.039 218.26 266.039 216.438V154.475C266.039 152.652 267.683 151.74 270.971 151.74H301.195C306.501 151.74 311.417 153.352 315.941 156.574C320.466 159.797 322.729 164.224 322.729 169.855C322.729 179.458 317.26 185.334 306.322 187.482C308.145 189.175 309.643 191.145 310.814 193.391C312.019 195.604 313.126 197.818 314.135 200.031C315.274 202.603 316.641 205.305 318.236 208.137C319.831 210.969 321.964 213.052 324.633 214.387C325.707 214.94 326.244 215.624 326.244 216.438C326.244 217.121 325.821 217.723 324.975 218.244C324.031 218.863 322.81 219.172 321.312 219.172ZM301.195 182.551C304.483 182.551 307.234 181.2 309.447 178.498C311.693 175.796 312.816 172.915 312.816 169.855C312.816 166.763 311.693 163.882 309.447 161.213C307.234 158.544 304.483 157.209 301.195 157.209H275.951V182.551H301.195ZM336.156 219.172C332.836 219.172 331.176 218.26 331.176 216.438V153.303C331.176 151.48 332.836 150.568 336.156 150.568C339.444 150.568 341.088 151.48 341.088 153.303V216.438C341.088 218.26 339.444 219.172 336.156 219.172ZM374.975 219.123C368.529 219.253 362.572 217.821 357.104 214.826C351.667 211.831 348.021 207.046 346.166 200.471C346.068 199.982 346.02 199.738 346.02 199.738C346.02 197.948 347.68 197.053 351 197.053C353.865 197.053 355.492 197.834 355.883 199.396C358.422 208.934 364.818 213.703 375.072 213.703C379.239 213.703 383.389 212.466 387.523 209.992C391.658 207.486 393.725 203.856 393.725 199.104C393.725 195.816 391.674 193.228 387.572 191.34C384.512 189.908 380.622 188.947 375.902 188.459C372.81 188.133 369.636 187.645 366.381 186.994C363.126 186.343 360.098 185.301 357.299 183.869C350.886 180.516 347.68 175.568 347.68 169.025C347.68 162.385 350.886 157.648 357.299 154.816C363.744 151.984 369.717 150.568 375.219 150.568C380.85 150.568 386.238 151.838 391.381 154.377C396.524 156.916 399.893 161.05 401.488 166.779C401.618 167.235 401.684 167.561 401.684 167.756C401.684 169.546 400.056 170.441 396.801 170.441C393.904 170.441 392.26 169.66 391.869 168.098C389.883 160.057 384.333 156.037 375.219 156.037C371.378 156.037 367.471 157.079 363.5 159.162C359.561 161.213 357.592 164.484 357.592 168.977C357.592 172.134 359.87 174.706 364.428 176.691C367.813 178.124 372.029 179.1 377.074 179.621C380.264 179.947 383.585 180.467 387.035 181.184C390.486 181.9 393.562 183.12 396.264 184.846C401.146 187.938 403.588 192.561 403.588 198.713C403.588 205.972 400.316 211.164 393.773 214.289C387.263 217.414 380.997 219.025 374.975 219.123ZM461.889 219.123C455.443 219.253 449.486 217.821 444.018 214.826C438.581 211.831 434.936 207.046 433.08 200.471C432.982 199.982 432.934 199.738 432.934 199.738C432.934 197.948 434.594 197.053 437.914 197.053C440.779 197.053 442.406 197.834 442.797 199.396C445.336 208.934 451.732 213.703 461.986 213.703C466.153 213.703 470.303 212.466 474.438 209.992C478.572 207.486 480.639 203.856 480.639 199.104C480.639 195.816 478.588 193.228 474.486 191.34C471.426 189.908 467.536 188.947 462.816 188.459C459.724 188.133 456.55 187.645 453.295 186.994C450.04 186.343 447.012 185.301 444.213 183.869C437.8 180.516 434.594 175.568 434.594 169.025C434.594 162.385 437.8 157.648 444.213 154.816C450.658 151.984 456.632 150.568 462.133 150.568C467.764 150.568 473.152 151.838 478.295 154.377C483.438 156.916 486.807 161.05 488.402 166.779C488.533 167.235 488.598 167.561 488.598 167.756C488.598 169.546 486.97 170.441 483.715 170.441C480.818 170.441 479.174 169.66 478.783 168.098C476.798 160.057 471.247 156.037 462.133 156.037C458.292 156.037 454.385 157.079 450.414 159.162C446.475 161.213 444.506 164.484 444.506 168.977C444.506 172.134 446.785 174.706 451.342 176.691C454.727 178.124 458.943 179.1 463.988 179.621C467.178 179.947 470.499 180.467 473.949 181.184C477.4 181.9 480.476 183.12 483.178 184.846C488.061 187.938 490.502 192.561 490.502 198.713C490.502 205.972 487.23 211.164 480.688 214.289C474.177 217.414 467.911 219.025 461.889 219.123ZM523.9 218.586C520.58 218.586 518.92 217.674 518.92 215.852V156.623H499.145C495.857 156.623 494.213 155.712 494.213 153.889C494.213 152.066 495.857 151.154 499.145 151.154H548.607C551.895 151.154 553.539 152.066 553.539 153.889C553.539 155.712 551.895 156.623 548.607 156.623H528.832V215.852C528.832 217.674 527.188 218.586 523.9 218.586ZM608.861 218H565.014C561.465 218 559.691 217.023 559.691 215.07V154.67C559.691 152.717 561.465 151.74 565.014 151.74H608.861C612.182 151.74 613.842 152.652 613.842 154.475C613.842 156.298 612.182 157.209 608.861 157.209H569.604V182.111H602.66C605.948 182.111 607.592 183.023 607.592 184.846C607.592 186.669 605.948 187.58 602.66 187.58H569.604V212.531H608.861C612.182 212.531 613.842 213.443 613.842 215.266C613.842 217.089 612.182 218 608.861 218ZM627.367 219.172C624.047 219.172 622.387 218.26 622.387 216.438V154.475C622.387 152.652 624.047 151.74 627.367 151.74H658.08C663.354 151.74 668.171 153.368 672.533 156.623C676.928 159.878 679.125 164.289 679.125 169.855C679.125 175.422 676.928 179.849 672.533 183.137C668.171 186.392 663.354 188.02 658.08 188.02H632.299V216.438C632.299 218.26 630.655 219.172 627.367 219.172ZM658.08 182.551C661.303 182.551 663.956 181.184 666.039 178.449C668.155 175.682 669.213 172.818 669.213 169.855C669.213 166.893 668.155 164.045 666.039 161.311C663.956 158.576 661.303 157.209 658.08 157.209H632.299V182.551H658.08ZM739.379 219.172C736.091 219.172 734.447 218.26 734.447 216.438V187.58H696.361V216.438C696.361 218.26 694.717 219.172 691.43 219.172C688.109 219.172 686.449 218.26 686.449 216.438V153.303C686.449 151.48 688.109 150.568 691.43 150.568C694.717 150.568 696.361 151.48 696.361 153.303V182.16H734.447V153.303C734.447 151.48 736.091 150.568 739.379 150.568C742.699 150.568 744.359 151.48 744.359 153.303V216.438C744.359 218.26 742.699 219.172 739.379 219.172ZM803.295 218H759.447C755.899 218 754.125 217.023 754.125 215.07V154.67C754.125 152.717 755.899 151.74 759.447 151.74H803.295C806.615 151.74 808.275 152.652 808.275 154.475C808.275 156.298 806.615 157.209 803.295 157.209H764.037V182.111H797.094C800.382 182.111 802.025 183.023 802.025 184.846C802.025 186.669 800.382 187.58 797.094 187.58H764.037V212.531H803.295C806.615 212.531 808.275 213.443 808.275 215.266C808.275 217.089 806.615 218 803.295 218ZM869.457 219.172C866.788 219.172 864.981 218.553 864.037 217.316L824.535 164.191V217.121C824.535 218.488 823.249 219.172 820.678 219.172C818.106 219.172 816.82 218.488 816.82 217.121V153.791C816.82 151.643 818.773 150.568 822.68 150.568C825.316 150.568 827.107 151.187 828.051 152.424L867.602 205.549V152.668C867.602 151.268 868.887 150.568 871.459 150.568C874.031 150.568 875.316 151.268 875.316 152.668V216.047C875.316 218.13 873.363 219.172 869.457 219.172ZM911.596 219.123C905.15 219.253 899.193 217.821 893.725 214.826C888.288 211.831 884.643 207.046 882.787 200.471C882.689 199.982 882.641 199.738 882.641 199.738C882.641 197.948 884.301 197.053 887.621 197.053C890.486 197.053 892.113 197.834 892.504 199.396C895.043 208.934 901.439 213.703 911.693 213.703C915.86 213.703 920.01 212.466 924.145 209.992C928.279 207.486 930.346 203.856 930.346 199.104C930.346 195.816 928.295 193.228 924.193 191.34C921.133 189.908 917.243 188.947 912.523 188.459C909.431 188.133 906.257 187.645 903.002 186.994C899.747 186.343 896.719 185.301 893.92 183.869C887.507 180.516 884.301 175.568 884.301 169.025C884.301 162.385 887.507 157.648 893.92 154.816C900.365 151.984 906.339 150.568 911.84 150.568C917.471 150.568 922.859 151.838 928.002 154.377C933.145 156.916 936.514 161.05 938.109 166.779C938.24 167.235 938.305 167.561 938.305 167.756C938.305 169.546 936.677 170.441 933.422 170.441C930.525 170.441 928.881 169.66 928.49 168.098C926.505 160.057 920.954 156.037 911.84 156.037C907.999 156.037 904.092 157.079 900.121 159.162C896.182 161.213 894.213 164.484 894.213 168.977C894.213 172.134 896.492 174.706 901.049 176.691C904.434 178.124 908.65 179.1 913.695 179.621C916.885 179.947 920.206 180.467 923.656 181.184C927.107 181.9 930.183 183.12 932.885 184.846C937.768 187.938 940.209 192.561 940.209 198.713C940.209 205.972 936.938 211.164 930.395 214.289C923.884 217.414 917.618 219.025 911.596 219.123Z" fill="black"/>
<path d="M376.977 278.586C375.333 278.586 374.511 278.13 374.511 277.219V246.237C374.511 245.326 375.333 244.87 376.977 244.87H397.509C399.153 244.87 399.975 245.326 399.975 246.237C399.975 247.149 399.153 247.604 397.509 247.604H379.467V260.227H394.604C396.264 260.227 397.094 260.682 397.094 261.594C397.094 262.505 396.264 262.961 394.604 262.961H379.467V277.219C379.467 278.13 378.637 278.586 376.977 278.586ZM431.298 278.586C430.663 278.586 430.11 278.464 429.638 278.22C427.782 277.292 426.382 276.047 425.438 274.484C424.494 272.922 423.648 271.319 422.899 269.675C422.346 268.438 421.614 267.022 420.702 265.427C419.807 263.815 418.537 263.01 416.894 263.01H408.617V277.219C408.617 278.13 407.787 278.586 406.127 278.586C404.483 278.586 403.661 278.13 403.661 277.219V246.237C403.661 245.326 404.483 244.87 406.127 244.87H421.239C423.892 244.87 426.35 245.676 428.612 247.287C430.875 248.898 432.006 251.112 432.006 253.928C432.006 258.729 429.271 261.667 423.803 262.741C424.714 263.588 425.463 264.572 426.049 265.695C426.651 266.802 427.204 267.909 427.709 269.016C428.279 270.301 428.962 271.652 429.76 273.068C430.557 274.484 431.623 275.526 432.958 276.193C433.495 276.47 433.764 276.812 433.764 277.219C433.764 277.561 433.552 277.862 433.129 278.122C432.657 278.431 432.047 278.586 431.298 278.586ZM421.239 260.275C422.883 260.275 424.258 259.6 425.365 258.249C426.488 256.898 427.05 255.458 427.05 253.928C427.05 252.382 426.488 250.941 425.365 249.606C424.258 248.272 422.883 247.604 421.239 247.604H408.617V260.275H421.239ZM462.035 278H440.111C438.337 278 437.45 277.512 437.45 276.535V246.335C437.45 245.358 438.337 244.87 440.111 244.87H462.035C463.695 244.87 464.525 245.326 464.525 246.237C464.525 247.149 463.695 247.604 462.035 247.604H442.406V260.056H458.935C460.578 260.056 461.4 260.511 461.4 261.423C461.4 262.334 460.578 262.79 458.935 262.79H442.406V275.266H462.035C463.695 275.266 464.525 275.721 464.525 276.633C464.525 277.544 463.695 278 462.035 278ZM493.383 278H471.459C469.685 278 468.798 277.512 468.798 276.535V246.335C468.798 245.358 469.685 244.87 471.459 244.87H493.383C495.043 244.87 495.873 245.326 495.873 246.237C495.873 247.149 495.043 247.604 493.383 247.604H473.754V260.056H490.282C491.926 260.056 492.748 260.511 492.748 261.423C492.748 262.334 491.926 262.79 490.282 262.79H473.754V275.266H493.383C495.043 275.266 495.873 275.721 495.873 276.633C495.873 277.544 495.043 278 493.383 278ZM521.435 278H502.636C500.976 278 500.146 277.544 500.146 276.633V245.651C500.146 244.74 500.976 244.284 502.636 244.284C504.28 244.284 505.102 244.74 505.102 245.651V275.266H521.435C523.095 275.266 523.925 275.721 523.925 276.633C523.925 277.544 523.095 278 521.435 278ZM555.834 278.586C554.353 278.586 553.458 278.236 553.148 277.536L548.681 267.404H533.471L528.979 277.829C528.767 278.334 528.157 278.586 527.147 278.586C525.829 278.586 525.17 278.26 525.17 277.609C525.17 277.561 525.186 277.487 525.219 277.39L539.086 245.285C539.363 244.618 540.29 244.284 541.869 244.284C543.253 244.284 544.099 244.626 544.408 245.31L558.373 276.95C558.422 277.064 558.446 277.17 558.446 277.268C558.446 278.146 557.576 278.586 555.834 278.586ZM547.46 264.67L540.99 249.997L534.667 264.67H547.46ZM587.841 278.586C586.506 278.586 585.603 278.277 585.131 277.658L565.38 251.096V277.561C565.38 278.244 564.737 278.586 563.451 278.586C562.165 278.586 561.522 278.244 561.522 277.561V245.896C561.522 244.821 562.499 244.284 564.452 244.284C565.771 244.284 566.666 244.593 567.138 245.212L586.913 271.774V245.334C586.913 244.634 587.556 244.284 588.842 244.284C590.128 244.284 590.771 244.634 590.771 245.334V277.023C590.771 278.065 589.794 278.586 587.841 278.586ZM625.756 267.917C625.756 268.063 625.707 268.332 625.609 268.723C624.714 271.994 622.81 274.46 619.896 276.12C616.999 277.764 613.948 278.586 610.741 278.586C605.598 278.586 601.586 277.007 598.705 273.85C595.84 270.676 594.408 266.574 594.408 261.545C594.408 256.434 595.881 252.284 598.827 249.094C601.789 245.887 605.875 244.284 611.083 244.284C614.273 244.284 617.333 245.139 620.263 246.848C623.209 248.54 624.983 251.039 625.585 254.343C625.65 254.603 625.683 254.807 625.683 254.953C625.683 255.865 624.885 256.32 623.29 256.32C621.711 256.32 620.865 255.897 620.751 255.051C620.035 249.696 616.812 247.019 611.083 247.019C607.112 247.019 604.158 248.549 602.221 251.608C600.3 254.652 599.34 257.948 599.34 261.496C599.34 264.979 600.259 268.251 602.099 271.311C603.938 274.354 606.835 275.876 610.79 275.876C616.535 275.876 619.872 273.182 620.8 267.795C620.93 266.981 621.76 266.574 623.29 266.574C624.934 266.574 625.756 267.022 625.756 267.917ZM630.663 278.586C629.003 278.586 628.173 278.13 628.173 277.219V245.651C628.173 244.74 629.003 244.284 630.663 244.284C632.307 244.284 633.129 244.74 633.129 245.651V277.219C633.129 278.13 632.307 278.586 630.663 278.586ZM663.134 278.586C661.799 278.586 660.896 278.277 660.424 277.658L640.673 251.096V277.561C640.673 278.244 640.03 278.586 638.744 278.586C637.458 278.586 636.815 278.244 636.815 277.561V245.896C636.815 244.821 637.792 244.284 639.745 244.284C641.063 244.284 641.959 244.593 642.431 245.212L662.206 271.774V245.334C662.206 244.634 662.849 244.284 664.135 244.284C665.421 244.284 666.063 244.634 666.063 245.334V277.023C666.063 278.065 665.087 278.586 663.134 278.586ZM687.133 275.852C689.786 275.852 692.146 275.119 694.213 273.654C696.833 271.831 698.144 269.903 698.144 267.868V263.767H687.255C685.595 263.767 684.765 263.311 684.765 262.399C684.765 261.488 685.595 261.032 687.255 261.032H700.609C702.253 261.032 703.075 261.488 703.075 262.399V267.868C703.075 269.187 702.506 270.578 701.366 272.043C700.227 273.508 699.136 274.606 698.095 275.339C694.97 277.504 691.316 278.586 687.133 278.586C681.941 278.586 677.742 277.056 674.535 273.996C671.329 270.92 669.726 266.753 669.726 261.496C669.726 256.19 671.369 251.999 674.657 248.923C677.961 245.83 682.226 244.284 687.45 244.284C690.624 244.284 693.798 245.082 696.972 246.677C700.162 248.272 702.131 250.721 702.88 254.025C702.978 254.383 703.026 254.701 703.026 254.978C703.026 255.873 702.204 256.32 700.561 256.32C699.031 256.32 698.201 255.897 698.07 255.051C697.712 252.528 696.467 250.559 694.335 249.143C692.203 247.727 689.924 247.019 687.499 247.019C683.365 247.019 680.191 248.467 677.978 251.364C675.764 254.261 674.657 257.639 674.657 261.496C674.657 265.272 675.715 268.609 677.831 271.506C679.963 274.403 683.064 275.852 687.133 275.852Z" fill="black"/>
<line x1="328" y1="259.5" x2="126" y2="259.5" stroke="black"/>
<line x1="951" y1="259.5" x2="742" y2="259.5" stroke="black"/>
</svg>
